<?xml version="1.0" encoding="utf-8"?>
<!-- Generator: Adobe Illustrator 16.0.0, SVG Export Plug-In . SVG Version: 6.00 Build 0)  -->
<!DOCTYPE svg PUBLIC "-//W3C//DTD SVG 1.1//EN" "http://www.w3.org/Graphics/SVG/1.1/DTD/svg11.dtd">
<svg version="1.1" id="Layer_1" xmlns="http://www.w3.org/2000/svg" xmlns:xlink="http://www.w3.org/1999/xlink" x="0px" y="0px"
	 width="58px" height="30.115px" viewBox="0 0 58 30.115" enable-background="new 0 0 58 30.115" xml:space="preserve">
<path fill="#FFFFFF" d="M124.372,142.188L124.372,142.188L124.372,142.188 M124.427,135.271c0.021-0.008,0.047-0.018,0.068-0.025
	C124.474,135.253,124.45,135.263,124.427,135.271z"/>
<path fill="#FFFFFF" d="M46.234,20.879c1.479-2.047,0.645-7.436-2.377-7.813l-3.869-0.468c-0.051,2.681-0.076,5.502-0.127,8.207
	c-0.039,2.719-0.062,5.438-0.113,8.182l3.818-0.051C47.171,28.883,48.17,23.182,46.234,20.879z M42.732,16.645
	c0.252,0.012,0.492,0.037,0.746,0.062c0.367,0.025,0.81,0.467,0.797,1.201c0,0.709-0.354,1.189-0.834,1.164
	c-0.252-0.014-0.494-0.039-0.734-0.051C42.72,18.225,42.732,17.439,42.732,16.645z M43.542,25.115h-0.91
	c0.013-0.783,0.024-1.568,0.038-2.338c0.279,0,0.568,0.012,0.848,0.012c0.619,0.025,1,0.557,0.986,1.188
	C44.503,24.547,44.111,25.115,43.542,25.115z M36.902,14.33c-1.188-1.707-2.871-2.908-4.881-3.162
	c-2.011-0.266-3.995,0.545-5.476,2.1c-1.518,1.593-2.529,3.945-2.592,6.639c-0.076,2.707,0.822,5.186,2.275,6.943
	c1.418,1.707,3.39,2.705,5.438,2.629c2.049-0.088,3.78-1.164,5.032-2.793c1.228-1.607,2.012-3.77,2.05-6.121
	C38.773,18.199,38.066,15.998,36.902,14.33z M34.361,23.572c-0.657,0.822-1.568,1.34-2.605,1.34s-2.011-0.531-2.694-1.402
	c-0.695-0.873-1.113-2.1-1.086-3.428c0.024-1.314,0.504-2.49,1.227-3.301c0.721-0.795,1.706-1.238,2.731-1.15
	c1.023,0.088,1.909,0.67,2.541,1.543c0.62,0.859,1,1.998,0.986,3.236C35.436,21.65,35.006,22.777,34.361,23.572z M56.514,16.492
	c-0.82-1.392-1.959-2.353-3.299-2.517c-1.341-0.177-2.645,0.53-3.592,1.808c-0.975,1.316-1.605,3.238-1.618,5.412
	c-0.026,2.188,0.581,4.174,1.542,5.602c0.938,1.393,2.238,2.213,3.592,2.164c1.354-0.062,2.516-0.938,3.352-2.275
	c0.82-1.316,1.326-3.1,1.341-5.061C57.831,19.678,57.326,17.857,56.514,16.492z M54.883,24.143c-0.429,0.67-1.036,1.1-1.719,1.1
	c-0.684,0-1.329-0.441-1.795-1.15c-0.456-0.707-0.748-1.693-0.734-2.781c0-1.074,0.303-2.023,0.771-2.693
	c0.455-0.67,1.111-1.037,1.781-0.986c0.684,0.062,1.277,0.543,1.709,1.238c0.43,0.709,0.694,1.646,0.694,2.656
	C55.592,22.549,55.327,23.473,54.883,24.143z M26.687,10.701l-4.818-0.582l-4.362,7.75l-6.968-0.379
	c-0.062,1.518-0.114,3.516-0.165,5.047c1.644,0.037,3.022,0.076,4.59,0.102c-0.81,1.213-1.959,2.236-4.261,2.225
	c-2.403-0.025-5.324-2.047-5.147-5.918c0.113-2.818,2.289-5.259,5.538-5.186c1.657,0.052,3.237,0.962,4.262,2.605l2.392-4.312
	c-0.62-0.747-2.392-2.782-6.349-3.263c-2.871-0.304-5.5,0.557-7.562,2.353c-2.138,1.858-3.528,4.552-3.655,7.485
	c-0.152,3.592,1.188,6.562,3.301,8.586c2.049,1.959,4.754,2.984,7.41,2.896l12.062-0.33l0.201-4.74h-4.299L26.687,10.701z"/>
<path fill="#FFFFFF" d="M18.752,8.164l0.147-5.984c0.117,0.021,0.231,0.042,0.349,0.062l3.144,5.829l0.164-5.231l0.299,0.054
	l-0.184,5.804c-0.104-0.013-0.206-0.027-0.307-0.039l-3.182-5.902L19.05,8.205L18.752,8.164z M14.379,7.576l0.233-5.988l0.006-0.17
	l0.17,0.028l1.884,0.339c1.001,0.178,1.556,0.879,1.72,1.621c0.06,0.271,0.069,0.545,0.031,0.799
	c-0.04,0.262-0.127,0.502-0.262,0.707h0.001c-0.287,0.435-0.774,0.686-1.431,0.533l-0.092-0.02l1.535,2.66L17.8,8.037l-1.59-2.761
	l-0.173-0.299l0.337,0.078L16.8,5.153c0.516,0.117,0.893-0.075,1.112-0.409l0,0c0.11-0.164,0.183-0.365,0.215-0.584
	c0.033-0.221,0.026-0.457-0.026-0.688c-0.143-0.637-0.615-1.238-1.481-1.393l-1.714-0.308l-0.228,5.843L14.379,7.576z M6.956,0.054
	l-0.225,5.11c0,0.029,0,0.053-0.002,0.069C6.698,5.611,6.545,5.896,6.282,6.084C6.026,6.266,5.676,6.347,5.239,6.328
	C5.192,6.326,5.149,6.322,5.112,6.32L4.828,6.295l0.014-0.301l0.295,0.024c0.046,0.004,0.084,0.006,0.117,0.009
	C5.623,6.043,5.91,5.979,6.108,5.84c0.187-0.133,0.297-0.346,0.32-0.631C6.43,5.185,6.433,5.164,6.433,5.15L6.657,0L6.956,0.054z
	 M28.577,3.912L28.419,9.17l1.847,0.242l-0.011,0.301L28.11,9.431l0.168-5.572L28.577,3.912z M38.283,8.719l0.059-2.649L36.51,8.402
	L38.283,8.719z M27.396,7.36l-2.432-0.387l-1.615,1.808l-0.361-0.048l4.488-5.024c0.102,0.021,0.201,0.037,0.303,0.054L27.651,9.36
	l-0.301-0.038L27.396,7.36z M25.201,6.709l2.2,0.352l0.066-2.889L25.201,6.709z M10.335,0.752C9.671,0.74,9.069,0.957,8.608,1.344
	C8.149,1.732,7.83,2.289,7.728,2.949C7.708,3.071,7.696,3.203,7.692,3.34C7.668,4.549,8.341,5.705,9.338,6.355
	c0.196,0.126,0.399,0.232,0.617,0.316c0.338,0.136,0.698,0.211,1.063,0.222c0.664,0.015,1.264-0.205,1.726-0.593
	c0.46-0.389,0.782-0.945,0.883-1.602c0.019-0.125,0.03-0.258,0.033-0.396c0.026-1.206-0.649-2.362-1.646-3.014
	c-0.194-0.127-0.401-0.234-0.614-0.32C11.06,0.84,10.7,0.762,10.335,0.752z M11.509,0.691c0.232,0.094,0.458,0.209,0.669,0.346
	c1.081,0.707,1.812,1.961,1.783,3.272c-0.002,0.146-0.015,0.289-0.039,0.435C13.81,5.478,13.45,6.098,12.938,6.53
	c-0.516,0.435-1.187,0.679-1.926,0.662c-0.4-0.008-0.797-0.091-1.168-0.239C9.61,6.861,9.387,6.746,9.176,6.606
	c-1.08-0.705-1.812-1.961-1.784-3.272C7.396,3.188,7.409,3.045,7.431,2.9c0.112-0.732,0.473-1.354,0.984-1.787
	c0.514-0.432,1.186-0.679,1.925-0.662C10.739,0.463,11.137,0.545,11.509,0.691z M32.148,4.852l-0.111,4.797l1.133,0.159
	c0.875,0.124,1.462-0.218,1.782-0.765c0.155-0.266,0.247-0.578,0.286-0.914c0.037-0.336,0.014-0.696-0.066-1.045
	c-0.223-0.965-0.893-1.858-1.958-2.047L32.148,4.852z M31.732,9.775l0.121-5.107l0.002-0.176l0.174,0.031l1.232,0.219
	c1.202,0.213,1.951,1.205,2.2,2.278c0.088,0.38,0.112,0.772,0.073,1.144c-0.041,0.377-0.147,0.73-0.326,1.032
	c-0.378,0.649-1.064,1.054-2.081,0.911l-1.265-0.179L31.73,9.908L31.732,9.775z M34.636,10.303l3.603-4.59l0.056-0.07l0.087,0.016
	l0.141,0.025l0.127,0.021l-0.002,0.131l-0.109,4.994l-0.301-0.041l0.039-1.765L36.298,8.67l-1.315,1.679L34.636,10.303z"/>
</svg>
